<?xml version="1.0" standalone="no"?>
<!DOCTYPE svg PUBLIC "-//W3C//DTD SVG 20010904//EN"
 "http://www.w3.org/TR/2001/REC-SVG-20010904/DTD/svg10.dtd">
<svg version="1.0" xmlns="http://www.w3.org/2000/svg"
 width="1236.000000pt" height="1600.000000pt" viewBox="0 0 1236.000000 1600.000000"
 preserveAspectRatio="xMidYMid meet">
<metadata>
Created by potrace 1.15, written by Peter Selinger 2001-2017
</metadata>
<g transform="translate(0.000000,1600.000000) scale(0.100000,-0.100000)"
fill="#000000" stroke="none">
<path d="M9197 14550 c-119 -30 -226 -133 -227 -218 0 -43 42 -105 140 -206
120 -124 127 -136 103 -176 -16 -28 -66 -60 -93 -60 -7 0 -50 9 -97 20 -80 20
-87 20 -143 4 -65 -18 -106 -14 -161 15 -73 39 -99 37 -206 -12 -54 -25 -181
-71 -283 -102 -282 -86 -405 -150 -530 -276 -36 -36 -84 -93 -105 -125 -33
-49 -40 -69 -43 -120 -5 -80 27 -149 86 -182 60 -34 171 -31 296 8 172 52 321
75 696 105 124 9 172 8 235 -8 33 -8 125 -18 205 -21 244 -9 408 -56 562 -159
248 -165 417 -429 483 -752 21 -101 21 -262 1 -349 -20 -85 -20 -129 -1 -194
39 -129 16 -182 -76 -182 -61 0 -92 13 -192 78 -186 122 -337 134 -399 33 -21
-32 -23 -49 -23 -156 0 -113 2 -126 36 -220 62 -170 88 -348 74 -510 -8 -102
-25 -125 -88 -125 -82 0 -128 48 -342 350 -105 147 -169 218 -246 271 -68 46
-103 86 -120 136 -29 89 -64 115 -197 148 -54 13 -137 39 -183 56 -117 45
-424 202 -544 278 -369 236 -429 286 -485 409 -52 111 -54 115 -85 134 -19 11
-49 18 -80 18 -48 0 -52 2 -105 57 -31 32 -87 87 -125 123 -40 37 -81 87 -96
115 -45 90 -107 94 -186 12 -69 -71 -87 -118 -86 -217 1 -100 17 -171 79 -363
99 -305 121 -329 654 -720 95 -70 267 -215 320 -272 19 -20 96 -79 170 -131
193 -133 387 -292 515 -419 93 -93 114 -119 133 -170 34 -90 45 -176 33 -255
-18 -116 -48 -165 -184 -307 -102 -106 -206 -177 -284 -193 -134 -28 -298 16
-361 97 -63 82 -127 151 -184 200 -56 48 -296 216 -345 242 -46 24 -130 32
-209 21 -164 -22 -188 -58 -182 -264 3 -124 5 -134 32 -181 44 -75 47 -210 11
-461 -35 -241 -51 -301 -124 -476 -32 -79 -67 -169 -76 -201 -21 -74 -41 -88
-115 -77 -30 5 -113 9 -185 9 -73 1 -165 8 -210 17 -94 18 -293 23 -459 10
l-118 -9 -88 89 c-48 49 -97 109 -109 133 -27 53 -107 399 -123 534 -19 156 2
346 62 577 19 72 20 92 11 127 -30 111 -134 158 -258 117 -79 -26 -285 -128
-354 -174 -84 -57 -188 -157 -256 -248 -69 -92 -98 -118 -151 -138 -91 -35
-202 4 -357 126 -171 135 -258 230 -315 342 -48 97 -63 169 -58 278 7 147 64
242 240 396 215 189 420 330 655 451 297 152 508 313 742 566 235 255 325 435
338 678 7 127 -3 164 -57 213 -49 44 -96 54 -153 32 -63 -24 -201 -140 -392
-327 -245 -241 -359 -328 -580 -440 -99 -51 -210 -112 -247 -135 -119 -76
-170 -97 -340 -138 -220 -54 -354 -134 -562 -335 -289 -282 -428 -524 -471
-824 -8 -51 -32 -77 -71 -77 -46 0 -172 117 -214 199 -75 147 -78 375 -10 698
16 76 40 190 53 253 33 156 33 155 -84 154 -187 -1 -262 -35 -405 -180 -70
-71 -109 -104 -124 -104 -32 0 -101 60 -141 122 -33 51 -34 55 -38 176 -8 285
65 680 160 862 47 91 85 137 209 255 159 152 283 237 450 307 219 93 415 116
720 83 74 -7 183 -19 242 -25 121 -12 155 -21 287 -80 52 -23 136 -52 185 -65
125 -33 404 -77 443 -70 93 17 97 128 10 258 -58 86 -467 376 -675 478 -78 39
-92 42 -230 55 -81 8 -199 21 -262 31 -81 11 -191 16 -375 17 -283 1 -303 5
-331 57 -8 16 -14 38 -14 51 0 29 32 83 62 102 37 24 253 66 366 71 60 3 114
11 130 19 60 31 96 94 86 149 -11 63 -57 92 -169 108 -246 34 -687 -96 -975
-287 -236 -156 -426 -361 -645 -694 -150 -228 -137 -197 -256 -600 -84 -286
-109 -459 -109 -769 0 -473 112 -891 361 -1345 184 -335 350 -530 645 -758
222 -172 356 -255 565 -347 107 -47 218 -107 346 -187 103 -65 259 -155 345
-200 170 -89 229 -128 503 -335 99 -74 260 -187 357 -251 128 -84 201 -140
267 -205 101 -99 119 -137 100 -208 -14 -49 -79 -115 -115 -115 -45 0 -126 51
-213 135 -148 142 -323 282 -464 369 -118 73 -399 194 -782 336 -230 85 -410
129 -590 145 -44 4 -89 9 -100 12 -11 2 -176 6 -367 9 -378 5 -419 1 -578 -53
-104 -35 -284 -119 -350 -163 -30 -20 -68 -56 -85 -79 -25 -35 -30 -52 -29
-99 0 -80 27 -125 134 -223 206 -191 346 -387 521 -729 184 -359 295 -489 634
-745 186 -140 265 -185 416 -236 52 -17 155 -60 229 -94 273 -128 441 -153
785 -119 52 5 62 3 78 -14 25 -28 25 -102 -2 -229 -19 -94 -20 -114 -11 -275
34 -569 76 -757 300 -1317 68 -172 123 -286 178 -370 49 -75 222 -307 344
-459 133 -167 138 -177 142 -315 5 -124 23 -212 85 -414 21 -70 51 -191 66
-268 32 -167 91 -350 175 -540 34 -77 98 -223 142 -325 150 -346 242 -504 387
-664 209 -231 399 -358 632 -421 232 -63 442 -35 679 92 219 117 319 213 460
437 179 287 298 593 415 1066 101 407 204 698 407 1150 192 426 220 479 332
619 174 217 331 521 410 795 41 140 65 270 91 499 14 117 32 262 41 322 8 61
17 213 20 339 3 126 9 237 15 247 25 48 52 54 254 56 133 1 212 6 265 17 157
35 414 133 543 208 152 88 460 341 622 510 112 117 342 416 480 623 107 162
183 262 241 317 84 79 315 267 400 323 89 60 104 83 104 154 0 54 -10 67 -59
74 -18 3 -84 30 -145 61 -140 69 -283 110 -641 183 l-280 57 -230 0 c-242 0
-335 -9 -597 -60 -231 -45 -470 -137 -903 -349 -372 -182 -584 -312 -833 -512
-99 -80 -105 -83 -154 -83 -96 0 -173 57 -231 172 -71 140 -22 201 373 461 69
46 208 139 310 208 263 178 378 241 717 395 374 169 734 386 907 545 123 114
250 288 363 499 98 181 266 528 331 680 189 447 185 424 179 1035 -5 499 -8
540 -57 787 -16 81 -32 126 -74 208 -30 58 -67 146 -84 195 -47 142 -111 241
-259 402 -44 48 -158 174 -252 278 -180 199 -344 351 -422 390 -25 13 -115 51
-200 85 -163 65 -243 80 -322 60z"/>
</g>
</svg>
